<?xml version="1.0" encoding="UTF-8"?>
<svg width="631px" height="60px" viewBox="0 0 631 60" version="1.1" xmlns="http://www.w3.org/2000/svg" xmlns:xlink="http://www.w3.org/1999/xlink">
    <!-- Generator: Sketch 51.3 (57544) - http://www.bohemiancoding.com/sketch -->
    <title>full_logo</title>
    <desc>Created with Sketch.</desc>
    <defs/>
    <g id="О-комплексе" stroke="none" stroke-width="1" fill="none" fill-rule="evenodd">
        <g id="о_комплексе_metroplis" transform="translate(-300.000000, -320.000000)" fill="#FFFFFF">
            <g id="bloc_1">
                <g id="Title" transform="translate(300.000000, 320.000000)">
                    <path d="M198.096935,40.3550296 L191.21468,40.3550296 L191.21468,31.1774483 L198.096935,31.1774483 L198.096935,0.995279569 L220.773619,0.995279569 C234.165016,0.995279569 242.628549,8.70221395 242.628549,20.5538196 C242.628549,33.5649225 232.275514,40.3596835 219.623429,40.3596835 L208.202646,40.3596835 L208.202646,59.0060501 L198.096935,59.0060501 L198.096935,40.3550296 Z M552.011169,26.2321502 L552.011169,0.997274117 L562.116881,0.997274117 L562.116881,59.0053853 L552.011169,59.0053853 L552.011169,31.2180573 C549.15419,30.5994093 541.949802,28.6507575 537.32438,23.9970747 C530.372715,16.9988698 530.4392,8.66830663 530.4392,8.66830663 C530.4392,8.66830663 539.083572,8.34784921 545.968752,15.2702613 C549.098172,18.4230883 550.957443,22.8176879 552.011169,26.2321502 Z M45.7629147,0.995279569 L56.5268267,0.995279569 L56.5268267,59.0047204 L46.4197859,59.0047204 L46.4197859,17.4050927 L28.2627485,44.7530084 L27.9369723,44.7530084 L9.9408284,17.5699754 L9.9408284,59.0047204 L0,59.0047204 L0,0.995279569 L10.763912,0.995279569 L28.2627485,28.4256366 L45.7629147,0.995279569 Z M77.4798218,0.996476298 L120.121933,0.996476298 L120.121933,10.1089023 L87.5868626,10.1089023 L87.5868626,25.1930058 L116.425371,25.1930058 L116.425371,34.3107506 L87.5868626,34.3107506 L87.5868626,49.889502 L120.53281,49.889502 L120.53281,59.0059172 L77.4798218,59.0059172 L77.4798218,0.996476298 Z M134.585333,0.996476298 L181.251114,0.996476298 L181.251114,10.4439864 L163.014294,10.4439864 L163.014294,59.0059172 L152.824812,59.0059172 L152.824812,10.4439864 L134.585333,10.4439864 L134.585333,0.996476298 Z M219.951865,31.1608271 C227.592314,31.1608271 232.356625,26.8526029 232.356625,20.6362609 C232.356625,13.8401702 227.509873,10.2752477 219.951865,10.2752477 L208.202646,10.2752477 L208.202646,31.1608271 L219.951865,31.1608271 Z M256.597833,29.9993352 C256.597833,13.6746227 269.087694,0 286.751413,0 C304.416462,0 316.74011,13.50974 316.74011,29.9993352 C316.74011,46.3253773 304.251579,60 286.58653,60 C268.922811,60 256.597833,46.49026 256.597833,29.9993352 Z M306.141081,29.9993352 C306.141081,18.7288079 298.008643,9.36373911 286.58653,9.36373911 C275.167077,9.36373911 267.198192,18.5625956 267.198192,29.9993352 C267.198192,41.2725218 275.33063,50.6362609 286.751413,50.6362609 C298.170866,50.6362609 306.141081,41.4374044 306.141081,29.9993352 Z M335.146333,0.996476298 L382.058108,0.996476298 L382.058108,59.0059172 L371.953726,59.0059172 L371.953726,10.1926734 L345.252044,10.1926734 L345.252044,59.0059172 L335.146333,59.0059172 L335.146333,0.996476298 Z M400.468852,29.9993352 C400.468852,13.6746227 412.956053,0 430.621102,0 C448.287481,0 460.604481,13.50974 460.604481,29.9993352 C460.604481,46.3253773 448.117279,60 430.452231,60 C412.785852,60 400.468852,46.49026 400.468852,29.9993352 Z M450.009441,29.9993352 C450.009441,18.7288079 441.874343,9.36373911 430.452231,9.36373911 C419.038096,9.36373911 411.062562,18.5625956 411.062562,29.9993352 C411.062562,41.2725218 419.19766,50.6362609 430.621102,50.6362609 C442.043215,50.6362609 450.009441,41.4374044 450.009441,29.9993352 Z M496.106376,0.580014627 L505.472774,0.580014627 L530.778273,59.0056512 L520.098132,59.0056512 L500.624693,12.7613855 L481.151253,59.0056512 L470.802207,59.0056512 L496.106376,0.580014627 Z M578.342132,29.9993352 C578.342132,13.50974 590.583339,0 608.006383,0 C618.598763,0 625.013231,3.7284755 630.510205,9.03264411 L624.022605,16.5746958 C619.427166,12.2638122 614.492653,9.36373911 607.919952,9.36373911 C596.912705,9.36373911 588.94515,18.4814839 588.94515,29.9993352 C588.94515,41.3536334 596.912705,50.6362609 607.919952,50.6362609 C614.983312,50.6362609 619.502959,47.7348581 624.437471,43.0928795 L630.926401,49.7240875 C624.9268,56.0215411 618.354099,60 607.590187,60 C590.829333,60 578.342132,46.8226847 578.342132,29.9993352 Z" id="full_logo"/>
                </g>
            </g>
        </g>
    </g>
</svg>