<?xml version="1.0" encoding="utf-8"?>
<!-- Generator: Adobe Illustrator 23.0.0, SVG Export Plug-In . SVG Version: 6.00 Build 0)  -->
<svg version="1.2" baseProfile="tiny" id="Слой_1"
	 xmlns="http://www.w3.org/2000/svg" xmlns:xlink="http://www.w3.org/1999/xlink" x="0px" y="0px" width="100px" height="100px"
	 viewBox="0 0 100 100" xml:space="preserve">
<g id="Page-1">
	<g id="metropolis_landing" transform="translate(-670.000000, -5779.000000)">
		<g transform="translate(79.000000, 3262.000000)">
			<g id="Group-19" transform="translate(281.000000, 2517.000000)">
				<g transform="translate(310.000000, 0.000000)">
					<path id="Shape" fill="#69BF4A" d="M85.4,14.6C75.9,5.2,63.4,0,50,0S24.1,5.2,14.6,14.6S0,36.6,0,50s5.2,25.9,14.6,35.4
						S36.6,100,50,100s25.9-5.2,35.4-14.6S100,63.4,100,50S94.8,24.1,85.4,14.6z M75.9,28.6c2.8,1,5.3,2.2,7.7,3.5
						C92.3,37,97.1,43.3,97.1,50s-4.8,13-13.5,17.9c-2.4,1.3-5,2.5-7.7,3.5c1.8-6.6,2.7-13.9,2.7-21.4
						C78.6,42.5,77.6,35.2,75.9,28.6z M83.3,16.7c6,6,10.2,13.4,12.3,21.4c-2.5-3.2-6-6.1-10.5-8.6c-3.1-1.7-6.5-3.2-10.2-4.4
						c-1.2-3.7-2.7-7.1-4.4-10.2c-2.5-4.5-5.4-8-8.6-10.5C69.9,6.5,77.3,10.7,83.3,16.7z M75.6,50c0,8-1.1,15.7-3.1,22.5
						c-6.8,2-14.5,3.1-22.5,3.1s-15.7-1.1-22.5-3.1c-2-6.8-3.1-14.5-3.1-22.5s1.1-15.7,3.1-22.5c6.8-2,14.5-3.1,22.5-3.1
						s15.7,1.1,22.5,3.1C74.5,34.3,75.6,42,75.6,50z M67.9,16.4c1.3,2.4,2.5,5,3.5,7.7c-6.6-1.8-13.9-2.7-21.4-2.7
						c-7.5,0-14.8,0.9-21.4,2.7c1-2.8,2.2-5.3,3.5-7.7C37,7.7,43.3,2.9,50,2.9S63,7.7,67.9,16.4z M16.7,16.7
						c6-6,13.4-10.2,21.4-12.3C34.9,7,32,10.5,29.5,15c-1.7,3.1-3.2,6.5-4.4,10.2c-3.7,1.2-7.1,2.7-10.2,4.4
						c-4.5,2.5-8,5.4-10.5,8.6C6.5,30.1,10.7,22.7,16.7,16.7z M16.4,32.1c2.4-1.3,5-2.5,7.7-3.5c-1.8,6.6-2.7,13.9-2.7,21.4
						c0,7.5,0.9,14.8,2.7,21.4c-2.8-1-5.3-2.2-7.7-3.5C7.7,63,2.9,56.7,2.9,50S7.7,37,16.4,32.1z M16.7,83.3
						c-6-6-10.2-13.4-12.3-21.4c2.5,3.2,6,6.1,10.5,8.6c3.1,1.7,6.5,3.2,10.2,4.4c1.2,3.7,2.7,7.1,4.4,10.2c2.5,4.5,5.4,8,8.6,10.5
						C30.1,93.5,22.7,89.3,16.7,83.3z M32.1,83.6c-1.3-2.4-2.5-5-3.5-7.7c6.6,1.8,13.9,2.7,21.4,2.7c7.5,0,14.8-0.9,21.4-2.7
						c-1,2.8-2.2,5.3-3.5,7.7C63,92.3,56.7,97.1,50,97.1S37,92.3,32.1,83.6z M83.3,83.3c-6,6-13.4,10.2-21.4,12.3
						c3.2-2.5,6.1-6,8.6-10.5c1.7-3.1,3.2-6.5,4.4-10.2c3.7-1.2,7.1-2.7,10.2-4.4c4.5-2.5,8-5.4,10.5-8.6
						C93.5,69.9,89.3,77.3,83.3,83.3z"/>
					<rect id="Rectangle" x="5.7" y="48.1" fill-rule="evenodd" fill="#3E5363" width="3.8" height="3.8"/>
					<rect x="90.6" y="48.1" fill-rule="evenodd" fill="#3E5363" width="3.8" height="3.8"/>
					<rect x="48.1" y="90.6" fill-rule="evenodd" fill="#3E5363" width="3.8" height="3.8"/>
					<rect x="48.1" y="5.7" fill-rule="evenodd" fill="#3E5363" width="3.8" height="3.8"/>
					<g>
						<path fill="#3E5363" d="M36.9,51.5c0.4,0.3,0.6,0.8,0.6,1.3c0,0.4-0.1,0.8-0.3,1.2c-0.2,0.3-0.6,0.6-1,0.8
							c-0.4,0.2-0.9,0.3-1.5,0.3c-0.5,0-0.9-0.1-1.4-0.2c-0.5-0.1-0.9-0.3-1.2-0.6l0.5-1c0.3,0.2,0.6,0.4,0.9,0.5
							c0.3,0.1,0.7,0.2,1,0.2c0.5,0,0.9-0.1,1.1-0.3c0.3-0.2,0.4-0.5,0.4-0.8c0-0.3-0.1-0.6-0.4-0.8s-0.7-0.3-1.2-0.3h-1.1V51
							l1.9-1.8h-3l0-1.1h4.7v0.8l-2.1,2l0.4,0C36,51,36.5,51.2,36.9,51.5z"/>
						<path fill="#3E5363" d="M44.3,48.4c0.6,0.3,1,0.7,1.3,1.2c0.3,0.5,0.5,1.1,0.5,1.8c0,0.7-0.2,1.3-0.5,1.8
							c-0.3,0.5-0.8,0.9-1.3,1.2S43.1,55,42.4,55h-2.9v-7h2.9C43.1,48,43.7,48.1,44.3,48.4z M43.6,53.5c0.3-0.2,0.6-0.5,0.8-0.8
							s0.3-0.7,0.3-1.2c0-0.4-0.1-0.8-0.3-1.2c-0.2-0.4-0.5-0.6-0.8-0.8c-0.3-0.2-0.7-0.3-1.2-0.3h-1.5v4.6h1.6
							C42.9,53.8,43.3,53.7,43.6,53.5z"/>
						<path fill="#3E5363" d="M52.3,49h-2v-0.7h5V49h-2.1v6h-0.9V49z"/>
						<path fill="#3E5363" d="M57.3,48.3l1.3,2.9c0.2,0.4,0.3,0.8,0.5,1.2h0c0.1-0.3,0.3-0.7,0.4-1.2l1-2.8h0.9l-1.4,3.5
							c-0.4,0.9-0.8,1.9-1.3,2.6c-0.4,0.5-0.9,0.8-1.5,0.8c-0.2,0-0.4,0-0.5-0.1l0.1-0.7c0.1,0,0.2,0,0.3,0c0.7,0,1.1-0.7,1.3-1.2
							c0.1-0.1,0-0.3,0-0.4l-2.2-4.5H57.3z"/>
						<path fill="#3E5363" d="M63,48.3c0.4-0.1,1-0.1,1.7-0.1c0.9,0,1.5,0.2,1.9,0.6c0.4,0.3,0.6,0.8,0.6,1.4c0,0.6-0.2,1.1-0.5,1.4
							c-0.5,0.5-1.2,0.7-2.1,0.7c-0.3,0-0.5,0-0.7-0.1V55H63V48.3z M63.9,51.6c0.2,0,0.4,0.1,0.7,0.1c1,0,1.7-0.5,1.7-1.4
							c0-0.9-0.6-1.3-1.6-1.3c-0.4,0-0.7,0-0.8,0.1V51.6z"/>
					</g>
				</g>
			</g>
		</g>
	</g>
</g>
</svg>
