<?xml version="1.0" encoding="utf-8"?>
<!-- Generator: Adobe Illustrator 23.0.0, SVG Export Plug-In . SVG Version: 6.00 Build 0)  -->
<svg version="1.1" id="Слой_1" xmlns="http://www.w3.org/2000/svg" xmlns:xlink="http://www.w3.org/1999/xlink" x="0px" y="0px"
	 width="20px" height="20px" viewBox="0 0 20 20" style="enable-background:new 0 0 20 20;" xml:space="preserve">
<style type="text/css">
	.st0{fill:#3E5363;}
</style>
<title>apple_green</title>
<desc>Created with Sketch.</desc>
<g id="О-комплексе">
	<g id="о_комплексе_metroplis" transform="translate(-271.000000, -2240.000000)">
		<g id="infrastructura" transform="translate(0.000000, 1870.000000)">
			<g id="Group-8" transform="translate(180.000000, 0.000000)">
				<g id="Group-21" transform="translate(69.000000, 310.000000)">
					<path id="apple_green" class="st0" d="M32.4,65.8c4.2-1.9,7.5,0.6,7.5,4.8c0,4.4-3.1,11.1-7.9,9c-4.5,2-7.9-4.6-7.9-9
						c0-4.2,3.6-6.6,7.4-4.9c1.2-3.2,2.3-4.7,2.3-4.7c0.1-0.2,0.4-0.2,0.6-0.2l1.4,0.7c0.2,0.1,0.2,0.3,0,0.4c0,0-1.2,0.9-1.8,1.6h0
						C33.4,64.4,32.8,65.2,32.4,65.8z M31.6,64.4c0,0-1.7,0.1-2.9-1c-1.2-1.2-1-2.9-1-2.9c0-0.2,0.2-0.4,0.4-0.4c0,0,1.7-0.1,2.9,1
						c1.2,1.2,1,2.9,1,2.9C32,64.2,31.8,64.4,31.6,64.4z"/>
				</g>
			</g>
		</g>
	</g>
</g>
</svg>
