<?xml version="1.0" encoding="UTF-8"?>
<svg width="21px" height="25px" viewBox="0 0 21 25" version="1.1" xmlns="http://www.w3.org/2000/svg" xmlns:xlink="http://www.w3.org/1999/xlink">
    <!-- Generator: Sketch 51.3 (57544) - http://www.bohemiancoding.com/sketch -->
    <title>call_main</title>
    <desc>Created with Sketch.</desc>
    <defs/>
    <g id="Документация" stroke="none" stroke-width="1" fill="none" fill-rule="evenodd">
        <g id="Документация_metropolis" transform="translate(-1350.000000, -68.000000)" fill="#69BF4A">
            <path d="M1356.66585,67 C1356.5963,67 1356.52586,67.0091006 1356.45542,67.0277352 L1354.67936,67.5105011 C1354.56904,67.5408364 1354.4738,67.5798391 1354.39671,67.6270756 C1349.60191,70.5722074 1353.27499,80.1629536 1354.515,83.0322469 C1357.10799,89.0325846 1361.41812,95.025555 1365.74066,93.8515759 C1365.81863,93.8307745 1365.90325,93.7943721 1365.99141,93.7436687 L1367.60931,92.818873 C1367.95088,92.6234265 1368.09221,92.2078319 1367.93759,91.8516079 L1366.09419,87.5894873 C1365.92451,87.1968609 1365.47839,86.9814797 1365.05708,87.0898203 L1362.17657,87.7216629 L1362.10081,87.7190627 C1360.972,87.6744264 1359.29827,84.3410018 1358.09371,81.5527472 C1357.30026,79.7165902 1356.73807,78.1928875 1356.42352,77.023242 C1356.33182,76.6826191 1356.26049,76.3697313 1356.21176,76.093246 L1356.21176,76.0928127 C1356.06069,75.2364883 1356.11474,74.692185 1356.37701,74.4282672 L1356.47536,74.3489618 L1358.86456,72.8196255 C1359.25442,72.5882099 1359.40726,72.125812 1359.23802,71.7331856 L1357.39418,67.4706317 C1357.26792,67.1802788 1356.97597,67 1356.66585,67" id="call_main" transform="translate(1360.000000, 80.500000) rotate(-15.000000) translate(-1360.000000, -80.500000) "/>
        </g>
    </g>
</svg>