<?xml version="1.0" encoding="UTF-8"?>
<svg width="20px" height="16px" viewBox="0 0 20 16" version="1.1" xmlns="http://www.w3.org/2000/svg" xmlns:xlink="http://www.w3.org/1999/xlink">
    <!-- Generator: Sketch 51.3 (57544) - http://www.bohemiancoding.com/sketch -->
    <title>CCTV_green</title>
    <desc>Created with Sketch.</desc>
    <defs/>
    <g id="Документация" stroke="none" stroke-width="1" fill="none" fill-rule="evenodd">
        <g id="Документация_metropolis" transform="translate(-1349.000000, -153.000000)" fill="#69BF4A" fill-rule="nonzero">
            <g id="Group-36" transform="translate(1349.000000, 153.000000)">
                <path d="M1.44746094,7.36165617 L3.52082031,10.4966296 L1.39820313,11.3869342 L0,7.96878632 L1.44746094,7.36165617 Z M18.2757813,2.3055345 C19.0539844,4.20809187 18.1586328,6.39706722 16.2796484,7.18512207 L13.9424609,8.16545393 L13.9424609,11.502158 C13.4432422,11.1497227 12.8371484,10.9422566 12.18375,10.9422566 C11.5304297,10.9422566 10.9242969,11.1497227 10.4250781,11.502158 L10.4250781,9.64081698 L5.68113281,11.6305932 L1.49535156,5.301472 L13.4569531,0.284351591 C15.3358594,-0.503782376 17.4975391,0.402977125 18.2757813,2.3055345 Z M14.7142969,12.2835676 L14.7142969,12.2835281 L20,12.2835281 L20,15.8453398 L14.7142969,15.8453398 C15.0623437,15.3398266 15.2672266,14.7260907 15.2672266,14.0644537 C15.2672266,13.4028563 15.0623437,12.7891205 14.7142969,12.2835676 Z M12.1838281,16 C11.1281445,16 10.2723437,15.1334087 10.2723437,14.0644142 C10.2723437,12.9954196 11.1281445,12.1288284 12.1838281,12.1288284 C13.2395118,12.1288284 14.0953125,12.9954196 14.0953125,14.0644142 C14.0953125,15.1334087 13.2395118,16 12.1838281,16 Z" id="CCTV_green"/>
            </g>
        </g>
    </g>
</svg>