<?xml version="1.0" encoding="utf-8"?>
<!-- Generator: Adobe Illustrator 23.0.0, SVG Export Plug-In . SVG Version: 6.00 Build 0)  -->
<svg version="1.1" id="Слой_1" xmlns="http://www.w3.org/2000/svg" xmlns:xlink="http://www.w3.org/1999/xlink" x="0px" y="0px"
	 width="70px" height="78px" viewBox="0 0 70 78" style="enable-background:new 0 0 70 78;" xml:space="preserve">
<style type="text/css">
	.st0{fill-rule:evenodd;clip-rule:evenodd;fill:#69BF4A;}
	.st1{fill-rule:evenodd;clip-rule:evenodd;fill:#FFFFFF;}
</style>
<title>green_pin_big</title>
<desc>Created with Sketch.</desc>
<g id="Новости">
	<g id="Новости_внутри_metropolis" transform="translate(-294.000000, -4032.000000)">
		<g id="Map" transform="translate(0.000000, 3660.000000)">
			<g id="Group-30" transform="translate(294.000000, 372.000000)">
				<path id="green_pin_big" class="st0" d="M68.8,44l-9.1,33.7l-33.8-9C7.3,63.7-3.8,44.5,1.2,25.9S25.4-3.8,44.1,1.2
					S73.8,25.3,68.8,44z"/>
			</g>
		</g>
	</g>
</g>
<g id="Новости_1_">
	<g id="Новости_внутри_metropolis_1_" transform="translate(-312.000000, -4058.000000)">
		<g id="Map_1_" transform="translate(0.000000, 3660.000000)">
			<g id="Group-30_1_" transform="translate(294.000000, 372.000000)">
				<path id="m_pin_location" class="st1" d="M44.2,63.5c-1-0.2-3.8-1-5.6-2.8C36,58.1,36,54.9,36,54.9s3.3-0.1,5.9,2.5
					c1.3,1.3,2,3,2.4,4.4V52h4.1L55,62.4L61.6,52h4.1v22h-3.8V58.3l-6.8,10.3h-0.3L48,58.3V74h-3.8V63.5z"/>
			</g>
		</g>
	</g>
</g>
</svg>
