<?xml version="1.0" encoding="UTF-8"?>
<svg width="22px" height="12px" viewBox="0 0 22 12" version="1.1" xmlns="http://www.w3.org/2000/svg" xmlns:xlink="http://www.w3.org/1999/xlink">
    <!-- Generator: Sketch 51.3 (57544) - http://www.bohemiancoding.com/sketch -->
    <title>green_leaves</title>
    <desc>Created with Sketch.</desc>
    <defs/>
    <g id="О-застройщике" stroke="none" stroke-width="1" fill="none" fill-rule="evenodd">
        <g id="о_застройщике_metroplis" transform="translate(-860.000000, -1618.000000)" fill="#69BF4A" fill-rule="nonzero">
            <g id="block_2" transform="translate(169.000000, 887.000000)">
                <g id="Group-17" transform="translate(691.000000, 731.000000)">
                    <path d="M1.21206235e-05,0.0011909001 C1.21206235e-05,0.0011909001 4.47367808,-0.164653354 8.03692103,3.4178578 C11.0730407,6.47668647 11.7990394,11.7940249 11.7990394,11.7940249 C11.7990394,11.7940249 6.60419183,10.9937059 3.56325506,7.93418909 C-0.034395401,4.31245336 1.21206235e-05,0.0011909001 1.21206235e-05,0.0011909001 Z M10.0000121,0.0011909001 C10.0000121,0.0011909001 14.4736781,-0.164653354 18.036921,3.4178578 C21.0730407,6.47668647 21.7990394,11.7940249 21.7990394,11.7940249 C21.7990394,11.7940249 16.6041918,10.9937059 13.5632551,7.93418909 C9.9656046,4.31245336 10.0000121,0.0011909001 10.0000121,0.0011909001 Z" id="green_leaves"/>
                </g>
            </g>
        </g>
    </g>
</svg>