<?xml version="1.0" encoding="UTF-8"?>
<svg width="70px" height="70px" viewBox="0 0 70 70" version="1.1" xmlns="http://www.w3.org/2000/svg" xmlns:xlink="http://www.w3.org/1999/xlink">
    <!-- Generator: Sketch 51.3 (57544) - http://www.bohemiancoding.com/sketch -->
    <title>icon_rose</title>
    <desc>Created with Sketch.</desc>
    <defs/>
    <g id="Выбор-по-плану" stroke="none" stroke-width="1" fill="none" fill-rule="evenodd">
        <g id="выбор_по_плану_этажа_metropolis" transform="translate(-89.000000, -351.000000)" fill-rule="nonzero">
            <g id="Group-6" transform="translate(0.000000, 266.000000)">
                <g id="Group-7" transform="translate(60.000000, 60.000000)">
                    <g id="icon_rose" transform="translate(29.000000, 25.000000)">
                        <polygon id="Shape" fill="#D0E5C1" points="50.1070109 40.3131263 42.8272169 42.8272169 40.3131263 50.1070109 60.6012024 60.6012024"/>
                        <polygon id="Shape" fill="#D0E5C1" points="40.3131263 19.8354522 42.8272169 27.1157941 50.1070109 29.6293368 60.6012024 9.34180862"/>
                        <polygon id="Shape" fill="#D0E5C1" points="19.8354522 29.6293368 27.1157941 27.1157941 29.6293368 19.8354522 9.34180862 9.34180862"/>
                        <polygon id="Shape" fill="#D0E5C1" points="29.6293368 50.1070109 27.1157941 42.8272169 19.8354522 40.3131263 9.34180862 60.6012024"/>
                        <path d="M69.943011,34.9715055 L44.9045748,26.6253601 L57.0876127,14.4423221 L55.5006889,12.8553983 L43.317651,25.0384362 L34.9715055,0 L26.6253601,25.0384362 L14.4423221,12.8553983 L12.8553983,14.4423221 L25.0384362,26.6253601 L-2.84217094e-14,34.9715055 L25.0384362,43.317651 L12.8553983,55.5006889 L14.4423221,57.0876127 L26.6253601,44.9045748 L34.9715055,69.943011 L43.317651,44.9045748 L55.5006889,57.0876127 L57.0876127,55.5006889 L44.9045748,43.317651 L69.943011,34.9715055 Z M59.4789579,33.849261 L42.8272169,33.849261 L42.8272169,36.09375 L59.4789579,36.09375 L43.1302448,41.543321 L37.6806738,36.09375 L40.582728,36.09375 L40.582728,33.849261 L37.6806738,33.849261 L43.1302448,28.39969 L59.4789579,33.849261 Z M34.9715055,7.09731964 L41.543321,26.8127662 L34.9715055,33.3845817 L28.39969,26.8127662 L34.9715055,7.09731964 Z M32.2623372,33.849261 L10.4640531,33.849261 L26.8127662,28.39969 L32.2623372,33.849261 Z M10.4640531,36.09375 L32.2623372,36.09375 L26.8127662,41.543321 L10.4640531,36.09375 Z M34.9715055,62.8456914 L28.39969,43.1302448 L34.9715055,36.5584294 L41.543321,43.1302448 L34.9715055,62.8456914 Z" id="Shape" fill="#354453"/>
                    </g>
                </g>
            </g>
        </g>
    </g>
</svg>