<?xml version="1.0" encoding="utf-8"?>
<!-- Generator: Adobe Illustrator 23.0.0, SVG Export Plug-In . SVG Version: 6.00 Build 0)  -->
<svg version="1.1" id="Слой_1" xmlns="http://www.w3.org/2000/svg" xmlns:xlink="http://www.w3.org/1999/xlink" x="0px" y="0px"
	 width="386px" height="128px" viewBox="0 0 386 128" style="enable-background:new 0 0 386 128;" xml:space="preserve">
<style type="text/css">
	.st0{fill:#C8D3DC;}
</style>
<title>Logo_DIM</title>
<desc>Created with Sketch.</desc>
<g id="О-застройщике">
	<g id="о_застройщике_metroplis" transform="translate(-960.000000, -380.000000)">
		<g id="bloc_1">
			<g id="Title" transform="translate(300.000000, 315.000000)">
				<g id="Logo_DIM" transform="translate(660.000000, 65.000000)">
					<path id="Fill-1" class="st0" d="M247,79.1c0.9,0,1.6-0.3,2.2-0.9c0.6-0.6,0.9-1.5,0.9-2.4c0-1-0.3-1.8-0.9-2.4
						c-0.6-0.6-1.3-1-2.2-1c-0.9,0-1.6,0.3-2.2,1c-0.6,0.6-0.9,1.4-0.9,2.4c0,1,0.3,1.8,0.9,2.4C245.4,78.8,246.1,79.1,247,79.1z
						 M250.1,65h2.9v16.7h-2.9v-1.4c-0.9,1.2-2.1,1.7-3.6,1.7c-1.5,0-2.8-0.6-3.9-1.8c-1.1-1.2-1.6-2.7-1.6-4.5
						c0-1.8,0.5-3.2,1.6-4.5c1.1-1.2,2.4-1.8,3.9-1.8c1.6,0,2.8,0.6,3.6,1.7V65z"/>
					<path id="Fill-3" class="st0" d="M265,73.9c-0.3-1.5-1.5-2.3-2.9-2.3c-1.6,0-2.7,0.8-3,2.3H265z M259.1,76.2
						c0.4,1.4,1.5,2.1,3.3,2.1c1.1,0,2-0.4,2.6-1.1l2.4,1.4c-1.1,1.6-2.8,2.4-5.1,2.4c-1.9,0-3.5-0.6-4.6-1.7
						c-1.2-1.1-1.7-2.6-1.7-4.3c0-1.7,0.6-3.1,1.7-4.3c1.1-1.2,2.6-1.7,4.4-1.7c1.7,0,3.1,0.6,4.2,1.7c1.1,1.2,1.7,2.6,1.7,4.3
						c0,0.4,0,0.8-0.1,1.2H259.1z"/>
					<polygon id="Fill-5" class="st0" points="276.8,69 280,69 275.7,81 272.3,81 268,69 271.2,69 274,77.4 					"/>
					<path id="Fill-7" class="st0" d="M290,73.9c-0.3-1.5-1.5-2.3-2.9-2.3c-1.6,0-2.7,0.8-3,2.3H290z M284.1,76.2
						c0.4,1.4,1.5,2.1,3.3,2.1c1.1,0,2-0.4,2.6-1.1l2.4,1.4c-1.1,1.6-2.8,2.4-5.1,2.4c-1.9,0-3.5-0.6-4.6-1.7
						c-1.2-1.1-1.7-2.6-1.7-4.3c0-1.7,0.6-3.1,1.7-4.3c1.1-1.2,2.6-1.7,4.4-1.7c1.7,0,3.1,0.6,4.2,1.7c1.1,1.2,1.7,2.6,1.7,4.3
						c0,0.4,0,0.8-0.1,1.2H284.1z"/>
					<polygon id="Fill-9" class="st0" points="295,81 298,81 298,64 295,64 					"/>
					<path id="Fill-11" class="st0" d="M306,78.1c0.9,0,1.6-0.3,2.2-0.9c0.6-0.6,0.9-1.3,0.9-2.3c0-0.9-0.3-1.7-0.9-2.2
						c-0.6-0.6-1.3-0.9-2.2-0.9c-0.9,0-1.6,0.3-2.2,0.9c-0.6,0.6-0.9,1.3-0.9,2.2c0,0.9,0.3,1.7,0.9,2.3
						C304.4,77.8,305.1,78.1,306,78.1 M306,81c-1.7,0-3.1-0.6-4.3-1.7c-1.2-1.2-1.7-2.6-1.7-4.3c0-1.7,0.6-3.1,1.7-4.2
						c1.2-1.2,2.6-1.7,4.3-1.7c1.7,0,3.1,0.6,4.3,1.7c1.2,1.2,1.7,2.6,1.7,4.2c0,1.7-0.6,3.1-1.7,4.3C309.1,80.4,307.7,81,306,81"/>
					<path id="Fill-12" class="st0" d="M320,78.6c0.9,0,1.6-0.3,2.2-0.9c0.6-0.6,0.9-1.5,0.9-2.4c0-1-0.3-1.8-0.9-2.4
						c-0.6-0.6-1.3-1-2.2-1c-0.9,0-1.6,0.3-2.2,1c-0.6,0.6-0.9,1.4-0.9,2.4c0,1,0.3,1.8,0.9,2.4C318.4,78.3,319.1,78.6,320,78.6
						 M324.4,70.8c1.1,1.2,1.6,2.7,1.6,4.5c0,1.8-0.5,3.3-1.6,4.5c-1.1,1.2-2.4,1.8-3.9,1.8c-1.6,0-2.8-0.6-3.6-1.7V86H314V69.3h2.9
						v1.4c0.9-1.2,2.1-1.7,3.6-1.7C322,69,323.3,69.6,324.4,70.8"/>
					<path id="Fill-13" class="st0" d="M346,73.8V81h-3v-7c0-1.4-0.7-2.2-1.9-2.2c-1.4,0-2.1,0.9-2.1,2.6V81h-3v-7
						c0-1.4-0.7-2.2-1.9-2.2c-1.3,0-2.2,0.9-2.2,2.6V81h-3V69.3h3v1.2c0.7-1.1,1.7-1.6,3.2-1.6c1.4,0,2.5,0.6,3.1,1.7
						c0.8-1.1,1.9-1.7,3.4-1.7C344.3,69,346,70.9,346,73.8"/>
					<path id="Fill-14" class="st0" d="M357,73.9c-0.3-1.5-1.5-2.3-2.9-2.3c-1.6,0-2.7,0.8-3,2.3H357z M351.1,76.2
						c0.4,1.4,1.5,2.1,3.3,2.1c1.1,0,2-0.4,2.6-1.1l2.4,1.4c-1.1,1.6-2.8,2.4-5.1,2.4c-1.9,0-3.5-0.6-4.6-1.7
						c-1.2-1.1-1.7-2.6-1.7-4.3c0-1.7,0.6-3.1,1.7-4.3c1.1-1.2,2.6-1.7,4.4-1.7c1.7,0,3.1,0.6,4.2,1.7c1.1,1.2,1.7,2.6,1.7,4.3
						c0,0.4,0,0.8-0.1,1.2H351.1z"/>
					<path id="Fill-15" class="st0" d="M371.7,70.3c0.8,0.9,1.3,2,1.3,3.5V81h-3v-6.8c0-1.6-0.9-2.4-2.3-2.4c-1.6,0-2.6,1-2.6,2.9
						V81h-3V69.3h3v1.3c0.7-1.1,1.9-1.6,3.5-1.6C369.8,69,370.9,69.4,371.7,70.3"/>
					<path id="Fill-16" class="st0" d="M383,72.1h-2.7V77c0,1.3,0.9,1.3,2.7,1.2v2.7c-4.3,0.5-5.9-0.7-5.9-3.9v-4.8H375v-2.9h2.1
						v-2.4l3.1-0.9v3.3h2.7V72.1z"/>
					<path id="Fill-17" class="st0" d="M241.4,102h3.2V90.2h-3.2V102z M241,86.9c0-1,0.9-1.9,2-1.9c1.1,0,2,0.9,2,1.9
						c0,1-0.9,1.9-2,1.9C241.9,88.8,241,87.9,241,86.9z"/>
					<path id="Fill-18" class="st0" d="M256.7,91.3c0.8,0.9,1.3,2,1.3,3.5v7.2h-3v-6.8c0-1.6-0.9-2.4-2.3-2.4c-1.6,0-2.6,1-2.6,2.9
						v6.3h-3V90.3h3v1.3c0.7-1.1,1.9-1.6,3.5-1.6C254.8,90,255.9,90.4,256.7,91.3"/>
					<polygon id="Fill-19" class="st0" points="267.8,90 271,90 266.7,102 263.3,102 259,90 262.2,90 265,98.4 					"/>
					<path id="Fill-20" class="st0" d="M281,94.9c-0.3-1.5-1.5-2.3-2.9-2.3c-1.6,0-2.7,0.8-3,2.3H281z M275.1,97.2
						c0.4,1.4,1.5,2.1,3.3,2.1c1.1,0,2-0.4,2.6-1.1l2.4,1.4c-1.1,1.6-2.8,2.4-5.1,2.4c-1.9,0-3.5-0.6-4.6-1.7
						c-1.2-1.1-1.7-2.6-1.7-4.3c0-1.7,0.6-3.1,1.7-4.3c1.1-1.2,2.6-1.7,4.4-1.7c1.7,0,3.1,0.6,4.2,1.7c1.1,1.2,1.7,2.6,1.7,4.3
						c0,0.4,0,0.8-0.1,1.2H275.1z"/>
					<path id="Fill-21" class="st0" d="M290.3,94.8c1.6,0.3,3.7,1.1,3.7,3.6c0,1.2-0.4,2.1-1.3,2.7c-0.8,0.6-1.9,0.9-3.1,0.9
						c-2.3,0-3.8-0.9-4.6-2.7l2.5-1.4c0.3,1,1,1.5,2.1,1.5c1,0,1.5-0.3,1.5-1c0-0.6-0.9-1-2-1.3c-1.6-0.4-3.7-1.1-3.7-3.5
						c0-1.1,0.4-2,1.2-2.6c0.8-0.7,1.8-1,3-1c1.8,0,3.3,0.9,4.2,2.4l-2.4,1.4c-0.4-0.8-0.9-1.2-1.8-1.2c-0.7,0-1.3,0.4-1.3,0.9
						C288.3,94.2,289.2,94.5,290.3,94.8"/>
					<path id="Fill-22" class="st0" d="M303,93.1h-2.7V98c0,1.3,0.9,1.3,2.7,1.2v2.7c-4.3,0.5-5.9-0.7-5.9-3.9v-4.8H295v-2.9h2.1
						v-2.4l3.1-0.9v3.3h2.7V93.1z"/>
					<path id="Fill-23" class="st0" d="M322,94.8v7.2h-3v-7c0-1.4-0.7-2.2-1.9-2.2c-1.4,0-2.1,0.9-2.1,2.6v6.6h-3v-7
						c0-1.4-0.7-2.2-1.9-2.2c-1.3,0-2.2,0.9-2.2,2.6v6.6h-3V90.3h3v1.2c0.7-1,1.7-1.6,3.2-1.6c1.4,0,2.5,0.6,3.1,1.7
						c0.8-1.1,1.9-1.7,3.4-1.7C320.3,90,322,91.9,322,94.8"/>
					<path id="Fill-24" class="st0" d="M333,94.9c-0.3-1.5-1.5-2.3-2.9-2.3c-1.6,0-2.7,0.8-3,2.3H333z M327.1,97.2
						c0.4,1.4,1.5,2.1,3.3,2.1c1.1,0,2-0.4,2.6-1.1l2.4,1.4c-1.1,1.6-2.8,2.4-5.1,2.4c-1.9,0-3.5-0.6-4.6-1.7
						c-1.2-1.1-1.7-2.6-1.7-4.3c0-1.7,0.6-3.1,1.7-4.3c1.1-1.2,2.6-1.7,4.4-1.7c1.7,0,3.1,0.6,4.2,1.7c1.1,1.2,1.7,2.6,1.7,4.3
						c0,0.4,0,0.8-0.1,1.2H327.1z"/>
					<path id="Fill-25" class="st0" d="M348.7,91.3c0.8,0.9,1.3,2,1.3,3.5v7.2h-3v-6.8c0-1.6-0.9-2.4-2.3-2.4c-1.6,0-2.6,1-2.6,2.9
						v6.3h-3V90.3h3v1.3c0.7-1.1,1.9-1.6,3.5-1.6C346.8,90,347.9,90.4,348.7,91.3"/>
					<path id="Fill-26" class="st0" d="M359,93.1h-2.7V98c0,1.3,0.9,1.3,2.7,1.2v2.7c-4.3,0.5-5.9-0.7-5.9-3.9v-4.8H351v-2.9h2.1
						v-2.4l3.1-0.9v3.3h2.7V93.1z"/>
					<path id="Fill-27" class="st0" d="M259,115.8v7.2h-3v-7c0-1.4-0.7-2.2-1.9-2.2c-1.4,0-2.1,0.9-2.1,2.6v6.6h-3v-7
						c0-1.4-0.7-2.2-1.9-2.2c-1.3,0-2.2,0.9-2.2,2.6v6.6h-3v-11.7h3v1.2c0.7-1,1.7-1.6,3.2-1.6c1.4,0,2.5,0.6,3.1,1.7
						c0.8-1.1,1.9-1.7,3.4-1.7C257.3,111,259,112.9,259,115.8"/>
					<path id="Fill-28" class="st0" d="M267,120.2c0.9,0,1.6-0.3,2.2-0.9c0.6-0.6,0.9-1.4,0.9-2.3c0-0.9-0.3-1.7-0.9-2.3
						c-0.6-0.6-1.3-0.9-2.2-0.9c-0.9,0-1.6,0.3-2.2,0.9c-0.6,0.6-0.9,1.4-0.9,2.3c0,0.9,0.3,1.7,0.9,2.3
						C265.4,119.9,266.1,120.2,267,120.2z M270.1,111.3h2.9v11.4h-2.9v-1.3c-0.9,1.1-2.1,1.7-3.7,1.7c-1.5,0-2.8-0.6-3.9-1.7
						c-1.1-1.2-1.6-2.6-1.6-4.3c0-1.7,0.5-3.1,1.6-4.3c1.1-1.2,2.4-1.7,3.9-1.7c1.6,0,2.8,0.5,3.7,1.7V111.3z"/>
					<path id="Fill-29" class="st0" d="M285.7,112.3c0.8,0.9,1.3,2,1.3,3.5v7.2h-3v-6.8c0-1.6-0.9-2.4-2.3-2.4c-1.6,0-2.6,1-2.6,2.9
						v6.3h-3v-11.7h3v1.3c0.7-1.1,1.9-1.6,3.5-1.6C283.8,111,284.9,111.4,285.7,112.3"/>
					<path id="Fill-30" class="st0" d="M295,120.2c0.9,0,1.6-0.3,2.2-0.9c0.6-0.6,0.9-1.4,0.9-2.3c0-0.9-0.3-1.7-0.9-2.3
						c-0.6-0.6-1.3-0.9-2.2-0.9c-0.9,0-1.6,0.3-2.2,0.9c-0.6,0.6-0.9,1.4-0.9,2.3c0,0.9,0.3,1.7,0.9,2.3
						C293.4,119.9,294.1,120.2,295,120.2z M298.1,111.3h2.9v11.4h-2.9v-1.3c-0.9,1.1-2.1,1.7-3.7,1.7c-1.5,0-2.8-0.6-3.9-1.7
						c-1.1-1.2-1.6-2.6-1.6-4.3c0-1.7,0.5-3.1,1.6-4.3c1.1-1.2,2.4-1.7,3.9-1.7c1.6,0,2.8,0.5,3.7,1.7V111.3z"/>
					<path id="Fill-31" class="st0" d="M311.3,114.7c-0.6-0.6-1.3-0.9-2.2-0.9c-0.9,0-1.7,0.3-2.3,0.9c-0.6,0.6-0.9,1.4-0.9,2.3
						c0,1.9,1.3,3.2,3.1,3.2c1.8,0,3.1-1.3,3.1-3.2C312.2,116.1,311.9,115.3,311.3,114.7z M312.2,111.3h2.8v11.1
						c0,1.8-0.6,3.2-1.7,4.1c-1.1,1-2.5,1.4-4.1,1.4c-2.4,0-4.3-1-5.3-2.8l2.5-1.5c0.6,1.1,1.5,1.6,2.9,1.6c1.8,0,2.9-1,2.9-2.9
						v-1.3c-0.9,1.2-2,1.8-3.6,1.8c-1.6,0-2.9-0.6-4-1.7c-1.1-1.2-1.6-2.6-1.6-4.2c0-1.7,0.5-3.1,1.6-4.2c1.1-1.2,2.4-1.8,4-1.8
						c1.5,0,2.7,0.6,3.6,1.8V111.3z"/>
					<path id="Fill-32" class="st0" d="M327,115.9c-0.3-1.5-1.5-2.3-2.9-2.3c-1.6,0-2.7,0.8-3,2.3H327z M321.1,118.2
						c0.4,1.4,1.5,2.1,3.3,2.1c1.1,0,2-0.4,2.6-1.1l2.4,1.4c-1.1,1.6-2.8,2.4-5.1,2.4c-1.9,0-3.5-0.6-4.6-1.7
						c-1.2-1.1-1.7-2.6-1.7-4.3c0-1.7,0.6-3.1,1.7-4.3c1.1-1.2,2.6-1.7,4.4-1.7c1.7,0,3.1,0.6,4.2,1.7c1.1,1.2,1.7,2.6,1.7,4.3
						c0,0.4,0,0.8-0.1,1.2H321.1z"/>
					<path id="Fill-33" class="st0" d="M349,115.8v7.2h-3v-7c0-1.4-0.7-2.2-1.9-2.2c-1.4,0-2.1,0.9-2.1,2.6v6.6h-3v-7
						c0-1.4-0.7-2.2-1.9-2.2c-1.3,0-2.2,0.9-2.2,2.6v6.6h-3v-11.7h3v1.2c0.7-1,1.7-1.6,3.2-1.6c1.4,0,2.5,0.6,3.1,1.7
						c0.8-1.1,1.9-1.7,3.4-1.7C347.3,111,349,112.9,349,115.8"/>
					<path id="Fill-34" class="st0" d="M360,115.9c-0.3-1.5-1.5-2.3-2.9-2.3c-1.6,0-2.7,0.8-3,2.3H360z M354.1,118.2
						c0.4,1.4,1.5,2.1,3.3,2.1c1.1,0,2-0.4,2.6-1.1l2.4,1.4c-1.1,1.6-2.8,2.4-5.1,2.4c-1.9,0-3.5-0.6-4.6-1.7
						c-1.2-1.1-1.7-2.6-1.7-4.3c0-1.7,0.6-3.1,1.7-4.3c1.1-1.2,2.6-1.7,4.4-1.7c1.7,0,3.1,0.6,4.2,1.7c1.1,1.2,1.7,2.6,1.7,4.3
						c0,0.4,0,0.8-0.1,1.2H354.1z"/>
					<path id="Fill-35" class="st0" d="M375.7,112.3c0.8,0.9,1.3,2,1.3,3.5v7.2h-3v-6.8c0-1.6-0.9-2.4-2.3-2.4c-1.6,0-2.6,1-2.6,2.9
						v6.3h-3v-11.7h3v1.3c0.7-1.1,1.9-1.6,3.5-1.6C373.8,111,374.9,111.4,375.7,112.3"/>
					<path id="Fill-36" class="st0" d="M386,114.1h-2.7v4.8c0,1.3,0.9,1.3,2.7,1.2v2.7c-4.3,0.5-5.9-0.7-5.9-3.9v-4.8H378v-2.9h2.1
						v-2.4l3.1-0.9v3.3h2.7V114.1z"/>
					<path id="Fill-37" class="st0" d="M216,64.4V123h-30.4V77.3l-15.5-16.1l-15.4,16l0,45.7h-30.4V77.2c0-9-7-16-15.4-16v-0.1H93
						V31H62.6v30.2H45.9c-8.5,0-15.5,6.7-15.5,15.3c0,8.5,7,15.6,15.5,15.6h16.7V61.2H93V123l-47.1-0.1C20.5,122.9,0,102,0,76.5
						c0-25.4,20.5-45.7,45.9-45.7l16.4,0V0h31.1v30.8l15.5,0c13.4,0,25.4,5.9,33.8,15.1l27.5-27.6L216,64.4z"/>
				</g>
			</g>
		</g>
	</g>
</g>
</svg>
