<?xml version="1.0" encoding="utf-8"?>
<!-- Generator: Adobe Illustrator 23.0.0, SVG Export Plug-In . SVG Version: 6.00 Build 0)  -->
<svg version="1.1" id="a0141320-cfbf-4e71-b1f7-b39411af06f6"
	 xmlns="http://www.w3.org/2000/svg" xmlns:xlink="http://www.w3.org/1999/xlink" x="0px" y="0px" width="533.2px" height="309.6px"
	 viewBox="0 0 533.2 309.6" style="enable-background:new 0 0 533.2 309.6;" xml:space="preserve">
<style type="text/css">
	.st0{opacity:0.4;}
	.st1{fill:#DDDDDD;}
	.st2{fill:#7BE250;}
</style>
<title>m_logo_outline</title>
<g id="f59cd88e-5ae8-459e-9fb4-eca486f804f8" class="st0">
	<g id="e91cc42f-b4ab-44c9-87de-eb1ee7f0166e">
		<g id="faa71349-2028-4e44-873c-6e63447a9265">
			<polygon class="st1" points="359.8,0 266.6,145.5 266.6,145.5 266.6,147.4 266.6,147.4 360.3,1 417,1 417,308.6 364.9,308.6 
				364.9,87 268.1,232.8 266.6,232.8 266.6,233.8 268.6,233.8 363.9,90.3 363.9,309.6 418,309.6 418,0 			"/>
			<path class="st2" d="M265.1,232.8L168.3,87v221.6h-52.1l-0.4-148.1c-12.2-2.6-24.1-6.4-35.7-11.1c-16.9-7-31.4-15.9-42.4-26.9
				c-4.8-4.8-9.3-10-13.3-15.5C14.8,93.7,7.8,78.5,3.9,62.5c-1.2-4.9-2-9.9-2.6-14.9c-0.2-1.6-0.3-3-0.4-4.3c0-0.5,0-0.9,0-1.2
				c1.6,0,3.8,0,6.7,0.3c4.9,0.4,9.8,1.1,14.6,2.1c14.9,3,29.1,8.8,41.9,17C71,66,77.4,71.2,83.3,77c14.3,14.2,24.7,34.1,32,56.9
				l1,3.1V1H173l93.7,146.4v-1.9L173.5,0h-58.2v130.6C108,108.9,97.8,90,84,76.3c-5.9-5.9-12.4-11.1-19.4-15.6
				c-12.9-8.3-27.2-14.1-42.2-17.1c-4.8-1-9.7-1.7-14.7-2.1c-2.6-0.3-5.2-0.2-7.7,0.3c0,0.3,0,0.9,0.1,1.7c0.1,1.3,0.2,2.7,0.3,4.3
				c0.5,5.1,1.4,10.1,2.6,15c3.9,16.2,10.9,31.4,20.7,44.9c4,5.5,8.5,10.8,13.3,15.6c11.2,11.1,25.8,20.1,42.8,27.1
				c11.5,4.7,23.3,8.5,35.4,11.1v148.2h54.1V90.3l95.3,143.5h2v-1H265.1z"/>
		</g>
	</g>
</g>
</svg>
