<?xml version="1.0" encoding="utf-8"?>
<!-- Generator: Adobe Illustrator 23.0.0, SVG Export Plug-In . SVG Version: 6.00 Build 0)  -->
<svg version="1.1" id="Слой_1" xmlns="http://www.w3.org/2000/svg" xmlns:xlink="http://www.w3.org/1999/xlink" x="0px" y="0px"
	 width="20px" height="20px" viewBox="0 0 20 20" style="enable-background:new 0 0 20 20;" xml:space="preserve">
<style type="text/css">
	.st0{fill:#3E5363;}
</style>
<title>parks_black</title>
<desc>Created with Sketch.</desc>
<g id="О-комплексе">
	<g id="о_комплексе_metroplis" transform="translate(-249.000000, -2365.000000)">
		<g id="infrastructura" transform="translate(0.000000, 1870.000000)">
			<g id="Group-8" transform="translate(180.000000, 0.000000)">
				<g id="Group-21" transform="translate(69.000000, 310.000000)">
					<path id="parks_black" class="st0" d="M19.9,199.1l-2.7-3.9h1c0.1,0,0.3-0.1,0.3-0.2c0.1-0.1,0.1-0.3,0-0.4l-1.8-2.6h0.3
						c0.1,0,0.3-0.1,0.3-0.2s0.1-0.3,0-0.4l-1.6-2.3c-0.1-0.1-0.2-0.1-0.3-0.1s-0.2,0.1-0.3,0.1l-1.6,2.3c-0.1,0.1-0.1,0.3,0,0.4
						c0.1,0.1,0.2,0.2,0.3,0.2h0.3l-1.8,2.6c-0.1,0.1-0.1,0.3,0,0.4c0.1,0.1,0.2,0.2,0.3,0.2h1l-2.7,3.9c-0.1,0.1-0.1,0.3,0,0.4
						c0.1,0.1,0.2,0.2,0.3,0.2h3v3.3H6.7v-2.5l1.4-1.1c0.1-0.1,0.1-0.2,0-0.3l-0.5-0.6c-0.1-0.1-0.2-0.1-0.3,0l-0.5,0.4v-2.2
						c0.3,0.1,0.6,0.2,0.9,0.2c1.2,0,2.2-1,2.2-2.2c0-0.2,0-0.3-0.1-0.5c1-0.2,1.7-1.1,1.7-2.1c0-1-0.7-1.9-1.7-2.1
						c0.1-0.2,0.1-0.4,0.1-0.6c0-1.2-1-2.2-2.2-2.2c-0.2,0-0.4,0-0.6,0.1c0,0,0-0.1,0-0.1c0-0.7-0.6-1.3-1.3-1.3s-1.3,0.6-1.3,1.3
						c0,0,0,0.1,0,0.1C4.2,187,4,187,3.8,187c-1.2,0-2.2,1-2.2,2.2c0,0.2,0,0.4,0.1,0.6c-1,0.2-1.7,1.1-1.7,2.1c0,1,0.7,1.9,1.7,2.1
						c0,0.2-0.1,0.3-0.1,0.5c0,1.2,1,2.2,2.2,2.2c0.3,0,0.6-0.1,0.9-0.2v6.4H1.1c-0.4,0-0.7,0.3-0.7,0.7s0.3,0.7,0.7,0.7h18.1
						c0.4,0,0.7-0.3,0.7-0.7s-0.3-0.7-0.7-0.7h-2.6v-3.3h3v0c0.1,0,0.3-0.1,0.3-0.2C20,199.3,20,199.2,19.9,199.1z"/>
				</g>
			</g>
		</g>
	</g>
</g>
</svg>
