<?xml version="1.0" encoding="utf-8"?>
<!-- Generator: Adobe Illustrator 23.0.0, SVG Export Plug-In . SVG Version: 6.00 Build 0)  -->
<svg version="1.1" id="Слой_1" xmlns="http://www.w3.org/2000/svg" xmlns:xlink="http://www.w3.org/1999/xlink" x="0px" y="0px"
	 width="20px" height="20px" viewBox="0 0 20 20" style="enable-background:new 0 0 20 20;" xml:space="preserve">
<style type="text/css">
	.st0{fill:#3E5363;}
</style>
<title>resorant_black</title>
<desc>Created with Sketch.</desc>
<g id="О-комплексе">
	<g id="о_комплексе_metroplis" transform="translate(-249.000000, -2181.000000)">
		<g id="infrastructura" transform="translate(0.000000, 1870.000000)">
			<g id="Group-8" transform="translate(180.000000, 0.000000)">
				<g id="Group-21" transform="translate(69.000000, 310.000000)">
					<path id="resorant_black" class="st0" d="M1.2,15.1c0,0.3,0.3,0.6,0.6,0.6h16.4c0.3,0,0.6-0.3,0.6-0.6c0-4.3-3.1-7.9-7.2-8.6
						c0.1-0.2,0.2-0.5,0.2-0.7C11.8,4.8,11,4,10,4S8.2,4.8,8.2,5.7c0,0.3,0.1,0.5,0.2,0.7C4.3,7.2,1.2,10.8,1.2,15.1z M9.4,5.7
						c0-0.3,0.3-0.6,0.6-0.6s0.6,0.3,0.6,0.6S10.3,6.3,10,6.3S9.4,6,9.4,5.7z M19.4,16.9c0.3,0,0.6,0.3,0.6,0.6S19.7,18,19.4,18H0.6
						C0.3,18,0,17.8,0,17.4s0.3-0.6,0.6-0.6H19.4z"/>
				</g>
			</g>
		</g>
	</g>
</g>
</svg>
