<?xml version="1.0" encoding="utf-8"?>
<!-- Generator: Adobe Illustrator 23.0.0, SVG Export Plug-In . SVG Version: 6.00 Build 0)  -->
<svg version="1.1" id="Слой_1" xmlns="http://www.w3.org/2000/svg" xmlns:xlink="http://www.w3.org/1999/xlink" x="0px" y="0px"
	 width="20px" height="20px" viewBox="0 0 20 20" style="enable-background:new 0 0 20 20;" xml:space="preserve">
<style type="text/css">
	.st0{fill:#3E5363;}
</style>
<title>sport_black</title>
<desc>Created with Sketch.</desc>
<g id="О-комплексе">
	<g id="о_комплексе_metroplis" transform="translate(-249.000000, -2308.000000)">
		<g id="infrastructura" transform="translate(0.000000, 1870.000000)">
			<g id="Group-8" transform="translate(180.000000, 0.000000)">
				<g id="Group-21" transform="translate(69.000000, 310.000000)">
					<path id="sport_black" class="st0" d="M6.4,136.2h7.2v3.5H6.4V136.2z M19,135.3c0.6,0,1,0.5,1,1v3.1c0,0.6-0.5,1-1,1h-0.5v-5.2
						H19z M16.5,133c0.6,0,1,0.5,1,1v7.8c0,0.6-0.5,1-1,1h-2V133H16.5z M2.5,134.1c0-0.6,0.5-1,1-1h2v9.9h-2c-0.6,0-1-0.5-1-1V134.1
						z M0,136.3c0-0.6,0.5-1,1-1h0.5v5.2H1c-0.6,0-1-0.5-1-1V136.3z"/>
				</g>
			</g>
		</g>
	</g>
</g>
</svg>
